<?xml version="1.0" encoding="utf-8"?>
<!-- Generator: Adobe Illustrator 24.2.0, SVG Export Plug-In . SVG Version: 6.00 Build 0)  -->
<svg version="1.1" xmlns="http://www.w3.org/2000/svg" xmlns:xlink="http://www.w3.org/1999/xlink" x="0px" y="0px"
	 viewBox="0 0 134 111" style="enable-background:new 0 0 134 111;" xml:space="preserve">
<style type="text/css">
	.st0{display:none;}
	.st1{display:inline;fill:#261F1F;}
	.st2{display:inline;}
	.st3{fill:#067AC5;}
	.st4{fill:#005A82;}
	.st5{fill:#035B8C;}
	.st6{display:inline;fill:#067AC5;}
	.st7{fill:#BBBAA6;}
	.st8{fill:#FFFFFF;}
	.st9{opacity:0.2;}
	.st10{fill:#231F20;}
	.st11{display:inline;fill:#035B8C;}
</style>
<g id="BACKGROUND" class="st0">
	<rect x="-349" y="-42" class="st1" width="500" height="500"/>
</g>
<g id="OBJECTS">
	<g>
		<g>
			<g class="st0">
				<g class="st2">
					<g>
						<g>
							<path class="st3" d="M-178.1,90.7l-40-74.7c-2.1-3.9-6.2-6.4-10.7-6.4c-4.5,0-8.5,2.4-10.7,6.4l-6.4,11.9l-6,11.2l0,0
								l-12.4-23.1c-2.1-3.9-6.2-6.4-10.7-6.4c-3.7,0-7.2,1.7-9.5,4.6c-0.4,0.6-0.8,1.2-1.2,1.8l-4.9,9.2l-35.1,65.5
								c-2,3.8-1.9,8.2,0.3,11.9c2.2,3.7,6.1,5.9,10.4,5.9h37.8c4.5,0,8.6-2.4,10.7-6.4l8.5-15.9l6-11.2l0,0l14.5,27.1
								c2.1,3.9,6.2,6.4,10.7,6.4h37.8c4.3,0,8.2-2.2,10.4-5.9C-176.2,98.9-176.1,94.5-178.1,90.7z M-261.4,57l-6,11.2l-12.5,23.3
								h-26.8l25.9-48.4l6-11.2l1.9,3.5L-261.4,57L-261.4,57z M-223.7,91.5L-224,91l-18.2-34l0,0l6-11.2l7.4-13.8l31.9,59.6H-223.7z
								"/>
						</g>
					</g>
					<g>
						<polygon class="st4" points="-251.8,75 -257.8,86.2 -267.4,68.2 -261.4,57 						"/>
					</g>
					<g>
						<polygon class="st4" points="-228.7,31.9 -242.1,57 -251.8,39 -238.4,14 						"/>
					</g>
				</g>
			</g>
			<g class="st0">
				<g class="st2">
					<path class="st3" d="M-110.4,67.5V89c0,4.6-1.9,8.8-4.9,11.8c-3,3-7.2,4.9-11.8,4.9c-9.2,0-16.7-7.5-16.7-16.7V56.3
						c0.5-8,10.4-11.7,16.2-5.9L-110.4,67.5L-110.4,67.5z"/>
					<path class="st3" d="M-33.5,23.9V53c-0.1-8.3-10.3-12.3-16.2-6.4l-11.9,11.9L-65,62l-1.8,1.8l-9.3,9.3l-0.1,0.1
						c-0.2,0.2-0.4,0.4-0.6,0.6c-3.2,3.1-7.4,4.7-11.6,4.7h-0.2c-4.3,0.1-8.6-1.5-11.8-4.7c-0.3-0.3-0.5-0.5-0.7-0.8l-9.3-9.3
						l-17.1-17.2c-5.9-5.9-16.1-1.9-16.2,6.4V23.9c0-9.1,7.1-16.9,16.2-17.1c4.5-0.1,8.6,1.5,11.7,4.3L-93,34h0l4.4,4.4l3.4-3.4
						l23.8-23.8c3.1-2.8,7.2-4.5,11.7-4.3C-40.5,7.1-33.5,14.8-33.5,23.9z"/>
				</g>
				<g class="st2">
					<polygon class="st5" points="-113.8,60.3 -112.2,62 -88.6,38.4 -94.9,32.1 					"/>
				</g>
				<path class="st6" d="M-33.5,56.8V89c0,9.2-7.5,16.7-16.7,16.7c-4.6,0-8.8-1.9-11.8-4.9c-3-3-4.9-7.2-4.9-11.8V67.5l17.1-17.2
					C-43.8,44.5-33.5,48.5-33.5,56.8z"/>
			</g>
			<g>
				<g>
					<g>
						<path class="st7" d="M59.5,105.6h-1.6c-7.4,0-13.3-6-13.3-13.3V20.8c0-7.4,6-13.3,13.3-13.3h1.6c7.4,0,13.3,6,13.3,13.3v71.5
							C72.8,99.7,66.9,105.6,59.5,105.6z"/>
					</g>
				</g>
				<g>
					<g>
						<path class="st7" d="M100.7,105.6h-1.6c-7.4,0-13.3-6-13.3-13.3V20.8c0-7.4,6-13.3,13.3-13.3h1.6c7.4,0,13.3,6,13.3,13.3v71.5
							C114.1,99.7,108.1,105.6,100.7,105.6z"/>
					</g>
				</g>
				<g>
					<g>
						<path class="st8" d="M52.4,104.1l-1.4-0.8c-6.4-3.7-8.6-11.8-4.9-18.2l42-72.8C91.8,6,100,3.8,106.3,7.5l1.4,0.8
							c6.4,3.7,8.6,11.8,4.9,18.2l-42,72.8C66.9,105.6,58.7,107.8,52.4,104.1z"/>
					</g>
				</g>
				<g>
					<g>
						<path class="st8" d="M11.1,104.1l-1.4-0.8c-6.4-3.7-8.6-11.8-4.9-18.2l42-72.8C50.6,6,58.7,3.8,65.1,7.5l1.4,0.8
							c6.4,3.7,8.6,11.8,4.9,18.2l-42,72.8C25.7,105.6,17.5,107.8,11.1,104.1z"/>
					</g>
				</g>
				<g>
					<g>
						<path class="st8" d="M93.6,104.1l-1.4-0.8c-6.4-3.7-8.6-11.8-4.9-18.2l15.6-27c3.7-6.4,11.8-8.6,18.2-4.9l1.4,0.8
							c6.4,3.7,8.6,11.8,4.9,18.2l-15.6,27C108.1,105.6,100,107.8,93.6,104.1z"/>
					</g>
				</g>
			</g>
			<g class="st0">
				<g class="st2">
					<g>
						<polygon class="st3" points="-178.2,408.5 -204.1,408.5 -232.5,361.2 -232.5,318 						"/>
					</g>
					<g>
						<polygon class="st5" points="-232.5,317.9 -232.5,361.2 -238.8,371.6 -251.8,393.2 -264.7,371.6 -251.8,350 						"/>
					</g>
				</g>
				<g class="st2">
					<g>
						<g>
							<polygon class="st3" points="-325.4,408.5 -299.4,408.5 -271,361.2 -271,318 							"/>
						</g>
						<g>
							<polygon class="st5" points="-271,317.9 -271,361.2 -264.7,371.6 -251.8,393.2 -238.8,371.6 -251.8,350 							"/>
						</g>
					</g>
					<polygon class="st3" points="-238.8,371.6 -251.8,350 -251.8,350 -251.8,350 -264.7,371.6 -286.9,408.5 -260.9,408.5 
						-251.8,393.2 -251.8,393.2 -251.8,393.2 -242.6,408.5 -216.6,408.5 					"/>
				</g>
			</g>
			<g class="st0">
				<g class="st2">
					<g>
						<g>
							<g>
								<g>
									<g>
										<g>
											<g class="st9">
												<g>
													<g>
														<path class="st10" d="M-211.1,245.6c0.2,0,0.3,0,0.5,0c-0.1,0-0.2,0-0.3,0H-211.1z"/>
													</g>
												</g>
											</g>
										</g>
									</g>
								</g>
								<g>
									<g>
										<g>
											<g>
												<g>
													<path class="st3" d="M-210.6,245.5c-0.1,0-0.2,0-0.3,0h-0.2C-210.9,245.6-210.7,245.6-210.6,245.5z"/>
												</g>
											</g>
										</g>
									</g>
									<g>
										<g>
											<path class="st3" d="M-211.1,245.6c0.2,0,0.3,0,0.5,0c-0.1,0-0.2,0-0.3,0H-211.1z"/>
										</g>
									</g>
								</g>
							</g>
						</g>
					</g>
					<g>
						<g>
							<path class="st5" d="M-278,204.9v37.6c0,7.2-6.5,13-14.4,13c-6,0-11.2-3.3-13.3-8.1c-0.7-1.5-1.1-3.2-1.1-4.9v-39.1
								c1.3-8.6,13.5-12.3,20.5-6L-278,204.9z"/>
						</g>
					</g>
					<g>
						<path class="st3" d="M-198.4,215c-1.5,3.6-5.5,6.1-9.7,6.6c-2.8,0.3-5.8-0.2-8.1-1.6c-0.7-0.4-1.3-0.9-1.9-1.4l-14.1-12.7
							l-20.4-18.4l-30.4-27.3c-2.7-2.4-6.1-3.7-9.6-3.8c-3.9-0.1-7.7,1.1-10.6,3.5c-2.9,2.4-4.6,5.9-4.6,9.5v29.9
							c0-0.1,0.1-0.3,0.1-0.4c0-0.1,0.1-0.2,0.1-0.3c0.8-3,3-5.6,6.1-7.1c0.5-0.3,1.1-0.5,1.7-0.7c0.2,0,0.3-0.1,0.5-0.1
							c1.5-0.5,3.1-0.5,4.7-0.5c1.7,0.1,3.4,0.6,4.9,1.4c2.1,1.1,3.9,3,5.7,4.6c2.7,2.4,5.3,4.8,8,7.2c3.7,3.3,7.3,6.6,11,9.9
							c4.1,3.7,8.3,7.4,12.4,11.2c4,3.6,8.1,7.3,12.1,10.9c3.4,3,6.8,6.1,10.1,9.1c2.2,1.9,4.3,3.9,6.5,5.8c0.5,0.4,1,0.9,1.5,1.3
							c4,3.6,10.2,4.8,15.5,3c5.6-1.9,9.4-6.8,9.4-12.2c0,0,0-30.2,0-30.2C-197.8,213.2-198.1,214.1-198.4,215z"/>
					</g>
					<g>
						<path class="st3" d="M-196.7,169.4v39.3c-1.1,8.8-13.4,12.7-20.5,6.3l-8.3-7.5v-7l-3.9,3.5l-20.4-18.4l28.3-25.5
							c2.8-2.5,6.5-3.8,10.2-3.8h0.3C-203.1,156.4-196.7,162.2-196.7,169.4z"/>
					</g>
				</g>
				<g class="st2">
					<path class="st5" d="M-196.7,200.6v8.1c-1.1,8.8-13.4,12.7-20.5,6.3l-8.3-7.5v-7l8.3-7.5c7.2-6.5,19.9-2.5,20.5,6.7
						C-196.7,200.1-196.7,200.3-196.7,200.6z"/>
				</g>
			</g>
			<g class="st0">
				<g class="st2">
					<g>
						<g>
							<path class="st3" d="M122.2,252.3h-19.8v-73.2C87.2,183.7,76,198.7,76,216.4v35.9H56.2v-35.9c0-33.1,25.1-60,56-60h9.9V252.3
								z"/>
						</g>
					</g>
					<g>
						<path class="st3" d="M76,216.4v35.9H56.2v-35.9c0-17.7-11.2-32.7-26.4-37.3v73.2H10.1v-95.8H20C50.9,156.5,76,183.4,76,216.4z
							"/>
					</g>
				</g>
				<g class="st2">
					<path class="st5" d="M29.9,179.1v73.2H10.1v-95.8C10.1,156.5,12.9,174.9,29.9,179.1z"/>
				</g>
				<g class="st2">
					<path class="st5" d="M102.4,179.1v73.2h19.8v-95.8C122.2,156.5,119.4,174.9,102.4,179.1z"/>
				</g>
			</g>
			<g class="st0">
				<path class="st11" d="M96.4,402.2c0.1-0.1,0.3-0.2,0.4-0.3C96.7,402,96.6,402.1,96.4,402.2L96.4,402.2z"/>
			</g>
			<g class="st0">
				<g class="st2">
					<g>
						<g>
							<path class="st5" d="M87.4,364.6c1.5-2,4.3-1.6,5.6,0.5c9.9,15.1,8.4,31.2,4.4,43.4c15.3-10.2,25.4-27.6,25.4-47.3
								c0-3.3-0.3-6.5-0.8-9.7C101.1,337.7,87.7,363.8,87.4,364.6z"/>
						</g>
						<path class="st3" d="M122,351.5c-20.9-13.9-34.3,12.3-34.6,13.1c0,0,0,0,0,0l-18.6,25.9c-1.3,1.8-4,1.8-5.4,0l-18.6-25.9
							c0,0,0,0,0,0c-0.3-0.8-13.7-26.9-34.6-13.1c2.3-13.3,9.2-25,19-33.4c0,0,0,0,0,0c12.6,0,28.8,23.6,34.7,32.7
							c1,1.6,3.4,1.6,4.4,0c5.8-9.2,22.1-32.7,34.7-32.7c0,0,0,0,0,0C112.9,326.6,119.8,338.3,122,351.5z"/>
					</g>
				</g>
				<g class="st2">
					<path class="st5" d="M44.9,364.6c-1.5-2-4.3-1.6-5.6,0.5c-9.9,15.1-8.4,31.2-4.4,43.4c-15.3-10.2-25.4-27.6-25.4-47.3
						c0-3.3,0.3-6.5,0.8-9.7C31.1,337.7,44.6,363.8,44.9,364.6z"/>
				</g>
			</g>
			<g class="st0">
				<g class="st2">
					<path class="st5" d="M-62.8,322.3v20.7l-10.6,13.5v-10.1l-13.2,17.3c-1,1.3-2.9,1.3-3.9,0l-13.2-17.3v10.1l-10.6-13.5v-20.7
						c0-2.3,3-3.3,4.4-1.5l21.4,28l21.4-28C-65.8,319-62.8,320-62.8,322.3z"/>
					<g>
						<g>
							<polygon class="st8" points="-120.7,343.7 -119.5,345.2 -121.8,342.2 -121.8,342.2 							"/>
						</g>
						<g>
							<polygon class="st8" points="-55.3,342.2 -58.3,346 -55.3,342.2 							"/>
						</g>
					</g>
					<path class="st3" d="M-39.2,320.8l-49.4,65l-49.4-65c-1.4-1.9-4.4-0.9-4.4,1.5v85.2c0,1.3,1.1,2.4,2.4,2.4h33.2
						c0.7,0,1.3-0.3,1.7-0.7c0.4-0.4,0.7-1,0.7-1.7v-15.2l-10.6-13.9v20.9h-16.9v-52.5l41.3,53.8c1,1.3,2.9,1.3,3.9,0l41.3-53.8
						v52.5h-16.9v-20.9l-10.6,13.9v15.2c0,1.3,1.1,2.4,2.5,2.4h33.2c1.4,0,2.4-1.1,2.4-2.4v-85.2C-34.8,320-37.8,319-39.2,320.8z"/>
				</g>
				<g class="st2">
					<path class="st5" d="M-104.3,392.3v15.2c0,0.7-0.3,1.3-0.7,1.7l-9.9-9.9v-20.9L-104.3,392.3z"/>
				</g>
				<g class="st2">
					<path class="st5" d="M-72.9,392.3v15.2c0,0.7,0.3,1.3,0.7,1.7l9.9-9.9v-20.9L-72.9,392.3z"/>
				</g>
			</g>
			<g class="st0">
				<polygon class="st6" points="-64.9,222 -52.3,239 -69.8,205.7 -92,247.9 -114.2,205.7 -131.8,239 -119.2,222 -105.2,248.4 
					-160,248.4 -117.9,162.4 -92,208.2 -66.2,162.4 -24.1,248.4 -78.8,248.4 				"/>
				<g class="st2">
					<polygon class="st5" points="-92,247.9 -114.2,205.7 -131.8,239 -115.3,190.8 					"/>
				</g>
				<g class="st2">
					<polygon class="st5" points="-92,247.9 -69.8,205.7 -52.3,239 -68.7,190.8 					"/>
				</g>
			</g>
		</g>
	</g>
</g>
</svg>
